<mxfile host="app.diagrams.net" agent="Mozilla/5.0 (X11; Linux x86_64) AppleWebKit/537.36 (KHTML, like Gecko) Chrome/124.0.0.0 Safari/537.36" version="24.7.13">
  <diagram name="Page-1" id="jto-qtzXlHKbKDOFZij-">
    <mxGraphModel dx="1793" dy="985" grid="1" gridSize="10" guides="1" tooltips="1" connect="1" arrows="1" fold="1" page="1" pageScale="1" pageWidth="850" pageHeight="1100" math="0" shadow="0">
      <root>
        <mxCell id="0" />
        <mxCell id="1" parent="0" />
        <mxCell id="kgj0ZtWSBMvPHDnNzbXX-134" style="edgeStyle=orthogonalEdgeStyle;rounded=0;orthogonalLoop=1;jettySize=auto;html=1;entryX=0;entryY=0.5;entryDx=0;entryDy=0;" parent="1" source="kgj0ZtWSBMvPHDnNzbXX-1" target="kgj0ZtWSBMvPHDnNzbXX-121" edge="1">
          <mxGeometry relative="1" as="geometry" />
        </mxCell>
        <mxCell id="kgj0ZtWSBMvPHDnNzbXX-1" value="" style="rounded=0;whiteSpace=wrap;html=1;" parent="1" vertex="1">
          <mxGeometry x="820" y="280" width="240" height="110" as="geometry" />
        </mxCell>
        <mxCell id="kgj0ZtWSBMvPHDnNzbXX-2" value="" style="endArrow=none;html=1;rounded=0;" parent="1" edge="1">
          <mxGeometry width="50" height="50" relative="1" as="geometry">
            <mxPoint x="400" y="760" as="sourcePoint" />
            <mxPoint x="400" y="20" as="targetPoint" />
          </mxGeometry>
        </mxCell>
        <mxCell id="kgj0ZtWSBMvPHDnNzbXX-3" value="" style="endArrow=none;html=1;rounded=0;" parent="1" edge="1">
          <mxGeometry width="50" height="50" relative="1" as="geometry">
            <mxPoint x="20" y="80" as="sourcePoint" />
            <mxPoint x="810" y="80" as="targetPoint" />
          </mxGeometry>
        </mxCell>
        <mxCell id="kgj0ZtWSBMvPHDnNzbXX-5" value="&lt;font style=&quot;font-size: 44px;&quot;&gt;Stack&lt;/font&gt;" style="text;html=1;align=center;verticalAlign=middle;whiteSpace=wrap;rounded=0;" parent="1" vertex="1">
          <mxGeometry x="70" y="20" width="330" height="60" as="geometry" />
        </mxCell>
        <mxCell id="kgj0ZtWSBMvPHDnNzbXX-6" value="&lt;span style=&quot;font-size: 44px;&quot;&gt;Heap&lt;/span&gt;" style="text;html=1;align=center;verticalAlign=middle;whiteSpace=wrap;rounded=0;" parent="1" vertex="1">
          <mxGeometry x="400" y="20" width="330" height="60" as="geometry" />
        </mxCell>
        <mxCell id="kgj0ZtWSBMvPHDnNzbXX-7" value="" style="endArrow=none;html=1;rounded=0;entryX=0.5;entryY=0;entryDx=0;entryDy=0;exitX=0.5;exitY=1;exitDx=0;exitDy=0;" parent="1" source="kgj0ZtWSBMvPHDnNzbXX-1" target="kgj0ZtWSBMvPHDnNzbXX-1" edge="1">
          <mxGeometry width="50" height="50" relative="1" as="geometry">
            <mxPoint x="920" y="360" as="sourcePoint" />
            <mxPoint x="970" y="310" as="targetPoint" />
          </mxGeometry>
        </mxCell>
        <mxCell id="kgj0ZtWSBMvPHDnNzbXX-8" value="&lt;font style=&quot;font-size: 20px;&quot;&gt;poke&lt;/font&gt;" style="text;html=1;align=center;verticalAlign=middle;whiteSpace=wrap;rounded=0;" parent="1" vertex="1">
          <mxGeometry x="820" y="290" width="120" height="20" as="geometry" />
        </mxCell>
        <mxCell id="kgj0ZtWSBMvPHDnNzbXX-9" value="&lt;font style=&quot;font-size: 20px;&quot;&gt;siguiente&lt;/font&gt;" style="text;html=1;align=center;verticalAlign=middle;whiteSpace=wrap;rounded=0;" parent="1" vertex="1">
          <mxGeometry x="960" y="320" width="80" height="30" as="geometry" />
        </mxCell>
        <mxCell id="kgj0ZtWSBMvPHDnNzbXX-32" value="" style="rounded=0;whiteSpace=wrap;html=1;" parent="1" vertex="1">
          <mxGeometry x="460" y="175" width="220" height="170" as="geometry" />
        </mxCell>
        <mxCell id="kgj0ZtWSBMvPHDnNzbXX-34" value="&lt;span style=&quot;font-size: 20px;&quot;&gt;cantidad&lt;/span&gt;" style="text;html=1;align=center;verticalAlign=middle;whiteSpace=wrap;rounded=0;" parent="1" vertex="1">
          <mxGeometry x="460" y="175" width="220" height="40" as="geometry" />
        </mxCell>
        <mxCell id="kgj0ZtWSBMvPHDnNzbXX-35" value="&lt;span style=&quot;font-size: 20px;&quot;&gt;ultimo_encontrado&lt;/span&gt;" style="text;html=1;align=center;verticalAlign=middle;whiteSpace=wrap;rounded=0;" parent="1" vertex="1">
          <mxGeometry x="462.5" y="215" width="217.5" height="40" as="geometry" />
        </mxCell>
        <mxCell id="kgj0ZtWSBMvPHDnNzbXX-109" style="edgeStyle=orthogonalEdgeStyle;rounded=0;orthogonalLoop=1;jettySize=auto;html=1;entryX=0;entryY=0.5;entryDx=0;entryDy=0;" parent="1" source="kgj0ZtWSBMvPHDnNzbXX-36" target="kgj0ZtWSBMvPHDnNzbXX-84" edge="1">
          <mxGeometry relative="1" as="geometry" />
        </mxCell>
        <mxCell id="kgj0ZtWSBMvPHDnNzbXX-36" value="&lt;span style=&quot;font-size: 20px;&quot;&gt;nodo_pokemon&lt;/span&gt;" style="text;html=1;align=center;verticalAlign=middle;whiteSpace=wrap;rounded=0;strokeColor=default;" parent="1" vertex="1">
          <mxGeometry x="460" y="255" width="220" height="40" as="geometry" />
        </mxCell>
        <mxCell id="kgj0ZtWSBMvPHDnNzbXX-39" style="edgeStyle=orthogonalEdgeStyle;rounded=0;orthogonalLoop=1;jettySize=auto;html=1;" parent="1" source="kgj0ZtWSBMvPHDnNzbXX-38" target="kgj0ZtWSBMvPHDnNzbXX-40" edge="1">
          <mxGeometry relative="1" as="geometry">
            <mxPoint x="420" y="210" as="targetPoint" />
          </mxGeometry>
        </mxCell>
        <mxCell id="kgj0ZtWSBMvPHDnNzbXX-38" value="&lt;span style=&quot;font-size: 20px;&quot;&gt;pokedex&lt;/span&gt;" style="rounded=0;whiteSpace=wrap;html=1;" parent="1" vertex="1">
          <mxGeometry x="120" y="230" width="120" height="60" as="geometry" />
        </mxCell>
        <mxCell id="kgj0ZtWSBMvPHDnNzbXX-40" value="" style="rounded=0;whiteSpace=wrap;html=1;" parent="1" vertex="1">
          <mxGeometry x="440" y="175" width="20" height="170" as="geometry" />
        </mxCell>
        <mxCell id="kgj0ZtWSBMvPHDnNzbXX-83" style="edgeStyle=orthogonalEdgeStyle;rounded=0;orthogonalLoop=1;jettySize=auto;html=1;" parent="1" source="kgj0ZtWSBMvPHDnNzbXX-42" target="kgj0ZtWSBMvPHDnNzbXX-45" edge="1">
          <mxGeometry relative="1" as="geometry" />
        </mxCell>
        <mxCell id="kgj0ZtWSBMvPHDnNzbXX-42" value="&lt;font style=&quot;font-size: 15px;&quot;&gt;nombre&lt;/font&gt;" style="text;html=1;align=center;verticalAlign=middle;whiteSpace=wrap;rounded=0;strokeColor=default;" parent="1" vertex="1">
          <mxGeometry x="820" y="360" width="120" height="20" as="geometry" />
        </mxCell>
        <mxCell id="kgj0ZtWSBMvPHDnNzbXX-43" value="&lt;font style=&quot;font-size: 15px;&quot;&gt;tipo&lt;/font&gt;" style="text;html=1;align=center;verticalAlign=middle;whiteSpace=wrap;rounded=0;" parent="1" vertex="1">
          <mxGeometry x="820" y="340" width="120" height="20" as="geometry" />
        </mxCell>
        <mxCell id="kgj0ZtWSBMvPHDnNzbXX-44" value="&lt;font style=&quot;font-size: 15px;&quot;&gt;etc&lt;/font&gt;" style="text;html=1;align=center;verticalAlign=middle;whiteSpace=wrap;rounded=0;" parent="1" vertex="1">
          <mxGeometry x="820" y="320" width="120" height="20" as="geometry" />
        </mxCell>
        <mxCell id="kgj0ZtWSBMvPHDnNzbXX-45" value="nombre" style="rounded=0;whiteSpace=wrap;html=1;" parent="1" vertex="1">
          <mxGeometry x="800" y="540" width="160" height="30" as="geometry" />
        </mxCell>
        <mxCell id="kgj0ZtWSBMvPHDnNzbXX-84" value="" style="rounded=0;whiteSpace=wrap;html=1;" parent="1" vertex="1">
          <mxGeometry x="800" y="280" width="20" height="110" as="geometry" />
        </mxCell>
        <mxCell id="kgj0ZtWSBMvPHDnNzbXX-110" value="&lt;font style=&quot;font-size: 20px;&quot;&gt;pokedex&lt;/font&gt;" style="rounded=0;whiteSpace=wrap;html=1;" parent="1" vertex="1">
          <mxGeometry x="440" y="130" width="240" height="45" as="geometry" />
        </mxCell>
        <mxCell id="kgj0ZtWSBMvPHDnNzbXX-111" value="&lt;span style=&quot;font-size: 20px;&quot;&gt;nodo_pokemon&lt;/span&gt;" style="rounded=0;whiteSpace=wrap;html=1;" parent="1" vertex="1">
          <mxGeometry x="800" y="240" width="260" height="40" as="geometry" />
        </mxCell>
        <mxCell id="kgj0ZtWSBMvPHDnNzbXX-112" value="" style="rounded=0;whiteSpace=wrap;html=1;" parent="1" vertex="1">
          <mxGeometry x="1220" y="280" width="240" height="110" as="geometry" />
        </mxCell>
        <mxCell id="kgj0ZtWSBMvPHDnNzbXX-113" value="" style="endArrow=none;html=1;rounded=0;entryX=0.5;entryY=0;entryDx=0;entryDy=0;exitX=0.5;exitY=1;exitDx=0;exitDy=0;" parent="1" source="kgj0ZtWSBMvPHDnNzbXX-112" target="kgj0ZtWSBMvPHDnNzbXX-112" edge="1">
          <mxGeometry width="50" height="50" relative="1" as="geometry">
            <mxPoint x="1320" y="360" as="sourcePoint" />
            <mxPoint x="1370" y="310" as="targetPoint" />
          </mxGeometry>
        </mxCell>
        <mxCell id="kgj0ZtWSBMvPHDnNzbXX-114" value="&lt;font style=&quot;font-size: 20px;&quot;&gt;poke&lt;/font&gt;" style="text;html=1;align=center;verticalAlign=middle;whiteSpace=wrap;rounded=0;" parent="1" vertex="1">
          <mxGeometry x="1220" y="290" width="120" height="20" as="geometry" />
        </mxCell>
        <mxCell id="kgj0ZtWSBMvPHDnNzbXX-135" style="edgeStyle=orthogonalEdgeStyle;rounded=0;orthogonalLoop=1;jettySize=auto;html=1;entryX=0;entryY=0.5;entryDx=0;entryDy=0;" parent="1" source="kgj0ZtWSBMvPHDnNzbXX-115" target="kgj0ZtWSBMvPHDnNzbXX-132" edge="1">
          <mxGeometry relative="1" as="geometry" />
        </mxCell>
        <mxCell id="kgj0ZtWSBMvPHDnNzbXX-115" value="&lt;font style=&quot;font-size: 20px;&quot;&gt;siguiente&lt;/font&gt;" style="text;html=1;align=center;verticalAlign=middle;whiteSpace=wrap;rounded=0;" parent="1" vertex="1">
          <mxGeometry x="1360" y="320" width="80" height="30" as="geometry" />
        </mxCell>
        <mxCell id="kgj0ZtWSBMvPHDnNzbXX-116" style="edgeStyle=orthogonalEdgeStyle;rounded=0;orthogonalLoop=1;jettySize=auto;html=1;" parent="1" source="kgj0ZtWSBMvPHDnNzbXX-117" target="kgj0ZtWSBMvPHDnNzbXX-120" edge="1">
          <mxGeometry relative="1" as="geometry" />
        </mxCell>
        <mxCell id="kgj0ZtWSBMvPHDnNzbXX-117" value="&lt;font style=&quot;font-size: 15px;&quot;&gt;nombre&lt;/font&gt;" style="text;html=1;align=center;verticalAlign=middle;whiteSpace=wrap;rounded=0;strokeColor=default;" parent="1" vertex="1">
          <mxGeometry x="1220" y="360" width="120" height="20" as="geometry" />
        </mxCell>
        <mxCell id="kgj0ZtWSBMvPHDnNzbXX-118" value="&lt;font style=&quot;font-size: 15px;&quot;&gt;tipo&lt;/font&gt;" style="text;html=1;align=center;verticalAlign=middle;whiteSpace=wrap;rounded=0;" parent="1" vertex="1">
          <mxGeometry x="1220" y="340" width="120" height="20" as="geometry" />
        </mxCell>
        <mxCell id="kgj0ZtWSBMvPHDnNzbXX-119" value="&lt;font style=&quot;font-size: 15px;&quot;&gt;etc&lt;/font&gt;" style="text;html=1;align=center;verticalAlign=middle;whiteSpace=wrap;rounded=0;" parent="1" vertex="1">
          <mxGeometry x="1220" y="320" width="120" height="20" as="geometry" />
        </mxCell>
        <mxCell id="P5RiWWWiuMrC4ZLzDgMA-2" style="edgeStyle=orthogonalEdgeStyle;rounded=0;orthogonalLoop=1;jettySize=auto;html=1;entryX=0.5;entryY=1;entryDx=0;entryDy=0;" edge="1" parent="1" source="kgj0ZtWSBMvPHDnNzbXX-120" target="P5RiWWWiuMrC4ZLzDgMA-1">
          <mxGeometry relative="1" as="geometry">
            <Array as="points">
              <mxPoint x="1280" y="650" />
              <mxPoint x="570" y="650" />
            </Array>
          </mxGeometry>
        </mxCell>
        <mxCell id="kgj0ZtWSBMvPHDnNzbXX-120" value="nombre" style="rounded=0;whiteSpace=wrap;html=1;" parent="1" vertex="1">
          <mxGeometry x="1200" y="540" width="160" height="30" as="geometry" />
        </mxCell>
        <mxCell id="kgj0ZtWSBMvPHDnNzbXX-121" value="" style="rounded=0;whiteSpace=wrap;html=1;" parent="1" vertex="1">
          <mxGeometry x="1200" y="280" width="20" height="110" as="geometry" />
        </mxCell>
        <mxCell id="kgj0ZtWSBMvPHDnNzbXX-122" value="&lt;span style=&quot;font-size: 20px;&quot;&gt;nodo_pokemon&lt;/span&gt;" style="rounded=0;whiteSpace=wrap;html=1;" parent="1" vertex="1">
          <mxGeometry x="1200" y="240" width="260" height="40" as="geometry" />
        </mxCell>
        <mxCell id="kgj0ZtWSBMvPHDnNzbXX-123" value="" style="rounded=0;whiteSpace=wrap;html=1;" parent="1" vertex="1">
          <mxGeometry x="1620" y="280" width="240" height="110" as="geometry" />
        </mxCell>
        <mxCell id="kgj0ZtWSBMvPHDnNzbXX-124" value="" style="endArrow=none;html=1;rounded=0;entryX=0.5;entryY=0;entryDx=0;entryDy=0;exitX=0.5;exitY=1;exitDx=0;exitDy=0;" parent="1" source="kgj0ZtWSBMvPHDnNzbXX-123" target="kgj0ZtWSBMvPHDnNzbXX-123" edge="1">
          <mxGeometry width="50" height="50" relative="1" as="geometry">
            <mxPoint x="1720" y="360" as="sourcePoint" />
            <mxPoint x="1770" y="310" as="targetPoint" />
          </mxGeometry>
        </mxCell>
        <mxCell id="kgj0ZtWSBMvPHDnNzbXX-125" value="&lt;font style=&quot;font-size: 20px;&quot;&gt;poke&lt;/font&gt;" style="text;html=1;align=center;verticalAlign=middle;whiteSpace=wrap;rounded=0;" parent="1" vertex="1">
          <mxGeometry x="1620" y="290" width="120" height="20" as="geometry" />
        </mxCell>
        <mxCell id="kgj0ZtWSBMvPHDnNzbXX-126" value="&lt;font style=&quot;font-size: 20px;&quot;&gt;siguiente&lt;/font&gt;" style="text;html=1;align=center;verticalAlign=middle;whiteSpace=wrap;rounded=0;" parent="1" vertex="1">
          <mxGeometry x="1760" y="320" width="80" height="30" as="geometry" />
        </mxCell>
        <mxCell id="kgj0ZtWSBMvPHDnNzbXX-127" style="edgeStyle=orthogonalEdgeStyle;rounded=0;orthogonalLoop=1;jettySize=auto;html=1;" parent="1" source="kgj0ZtWSBMvPHDnNzbXX-128" target="kgj0ZtWSBMvPHDnNzbXX-131" edge="1">
          <mxGeometry relative="1" as="geometry" />
        </mxCell>
        <mxCell id="kgj0ZtWSBMvPHDnNzbXX-128" value="&lt;font style=&quot;font-size: 15px;&quot;&gt;nombre&lt;/font&gt;" style="text;html=1;align=center;verticalAlign=middle;whiteSpace=wrap;rounded=0;strokeColor=default;" parent="1" vertex="1">
          <mxGeometry x="1620" y="360" width="120" height="20" as="geometry" />
        </mxCell>
        <mxCell id="kgj0ZtWSBMvPHDnNzbXX-129" value="&lt;font style=&quot;font-size: 15px;&quot;&gt;tipo&lt;/font&gt;" style="text;html=1;align=center;verticalAlign=middle;whiteSpace=wrap;rounded=0;" parent="1" vertex="1">
          <mxGeometry x="1620" y="340" width="120" height="20" as="geometry" />
        </mxCell>
        <mxCell id="kgj0ZtWSBMvPHDnNzbXX-130" value="&lt;font style=&quot;font-size: 15px;&quot;&gt;etc&lt;/font&gt;" style="text;html=1;align=center;verticalAlign=middle;whiteSpace=wrap;rounded=0;" parent="1" vertex="1">
          <mxGeometry x="1620" y="320" width="120" height="20" as="geometry" />
        </mxCell>
        <mxCell id="kgj0ZtWSBMvPHDnNzbXX-131" value="nombre" style="rounded=0;whiteSpace=wrap;html=1;" parent="1" vertex="1">
          <mxGeometry x="1600" y="540" width="160" height="30" as="geometry" />
        </mxCell>
        <mxCell id="kgj0ZtWSBMvPHDnNzbXX-132" value="" style="rounded=0;whiteSpace=wrap;html=1;" parent="1" vertex="1">
          <mxGeometry x="1600" y="280" width="20" height="110" as="geometry" />
        </mxCell>
        <mxCell id="kgj0ZtWSBMvPHDnNzbXX-133" value="&lt;span style=&quot;font-size: 20px;&quot;&gt;nodo_pokemon&lt;/span&gt;" style="rounded=0;whiteSpace=wrap;html=1;" parent="1" vertex="1">
          <mxGeometry x="1600" y="240" width="260" height="40" as="geometry" />
        </mxCell>
        <mxCell id="P5RiWWWiuMrC4ZLzDgMA-1" value="&lt;font style=&quot;font-size: 16px;&quot;&gt;nombre_ultimo_encontrado&lt;/font&gt;" style="text;html=1;align=center;verticalAlign=middle;whiteSpace=wrap;rounded=0;fillColor=#ffe6cc;strokeColor=#d79b00;" vertex="1" parent="1">
          <mxGeometry x="460" y="295" width="220" height="40" as="geometry" />
        </mxCell>
      </root>
    </mxGraphModel>
  </diagram>
</mxfile>
